<svg width="146" height="146" viewBox="0 0 146 146" fill="none" xmlns="http://www.w3.org/2000/svg">
<circle cx="73" cy="73" r="71" fill="#FEFEFE" stroke="#5AAB81" stroke-width="4"/>
<path d="M40.3333 60.75H48.4999V36.25H56.6666L70.6316 60.75H89.3333V36.25H97.4999V60.75H105.667V68.9167H97.4999V77.0833H105.667V85.25H97.4999V109.75H89.3333L75.3274 85.25H56.6666V109.75H48.4999V85.25H40.3333V77.0833H48.4999V68.9167H40.3333V60.75ZM56.6666 60.75H61.2808L56.6666 52.7058V60.75ZM56.6666 68.9167V77.0833H70.6316L65.9766 68.9167H56.6666ZM89.3333 93.4167V85.25H84.6374L89.3333 93.4167ZM75.2866 68.9167L79.9824 77.0833H89.3333V68.9167H75.2866Z" fill="#5AAB81"/>
</svg>
