<svg width="146" height="146" viewBox="0 0 146 146" fill="none" xmlns="http://www.w3.org/2000/svg">
<circle cx="73" cy="73" r="71" fill="#FEFEFE" stroke="#5AAB81" stroke-width="4"/>
<path d="M37 49C37 44.6 40.6 41 45 41H101C103.122 41 105.157 41.8429 106.657 43.3431C108.157 44.8434 109 46.8783 109 49V105C109 107.122 108.157 109.157 106.657 110.657C105.157 112.157 103.122 113 101 113H45C42.8783 113 40.8434 112.157 39.3431 110.657C37.8429 109.157 37 107.122 37 105V49ZM45 57V105H101V57H45ZM53 33H61V41H53V33ZM85 33H93V41H85V33ZM53 69H61V77H53V69ZM53 85H61V93H53V85ZM69 69H77V77H69V69ZM69 85H77V93H69V85ZM85 69H93V77H85V69ZM85 85H93V93H85V85Z" fill="#5AAB81"/>
</svg>
