<svg width="38" height="30" viewBox="0 0 38 30" fill="none" xmlns="http://www.w3.org/2000/svg">
<path d="M3.36458 29.1667C2.40625 29.1667 1.60625 28.8458 0.964583 28.2042C0.321528 27.5611 0 26.7604 0 25.8021V3.36458C0 2.40625 0.321528 1.60625 0.964583 0.964583C1.60625 0.321527 2.40625 0 3.36458 0H34.1354C35.0938 0 35.8937 0.321527 36.5354 0.964583C37.1785 1.60625 37.5 2.40625 37.5 3.36458V25.8021C37.5 26.7604 37.1792 27.5604 36.5375 28.2021C35.8944 28.8451 35.0938 29.1667 34.1354 29.1667H3.36458ZM18.75 14.8229L2.08333 3.92708V25.8021C2.08333 26.1757 2.20347 26.4826 2.44375 26.7229C2.68403 26.9632 2.99097 27.0833 3.36458 27.0833H34.1354C34.509 27.0833 34.816 26.9632 35.0562 26.7229C35.2965 26.4826 35.4167 26.1757 35.4167 25.8021V3.92708L18.75 14.8229ZM18.75 12.5L34.775 2.08333H2.725L18.75 12.5ZM2.08333 3.92708V2.08333V25.8021C2.08333 26.1757 2.20347 26.4826 2.44375 26.7229C2.68403 26.9632 2.99097 27.0833 3.36458 27.0833H2.08333V3.92708Z" fill="white"/>
</svg>
