<svg width="24" height="29" viewBox="0 0 24 29" fill="none" xmlns="http://www.w3.org/2000/svg">
<g filter="url(#filter0_d_179_769)">
<path d="M15.9299 12.543L7.57045 20.508C7.43096 20.641 7.24565 20.7151 7.05295 20.7151C6.86024 20.7151 6.67493 20.641 6.53545 20.508L6.52645 20.499C6.45859 20.4345 6.40456 20.357 6.36764 20.271C6.33072 20.185 6.31168 20.0923 6.31168 19.9988C6.31168 19.9052 6.33072 19.8126 6.36764 19.7266C6.40456 19.6406 6.45859 19.563 6.52645 19.4985L14.3984 11.9985L6.52645 4.50151C6.45859 4.43705 6.40457 4.35946 6.36764 4.27346C6.33072 4.18746 6.31168 4.09485 6.31168 4.00126C6.31168 3.90767 6.33072 3.81506 6.36764 3.72906C6.40457 3.64306 6.45859 3.56547 6.52645 3.50101L6.53545 3.49201C6.67493 3.35904 6.86024 3.28486 7.05295 3.28486C7.24565 3.28486 7.43096 3.35904 7.57045 3.49201L15.9299 11.457C16.0035 11.5271 16.062 11.6113 16.102 11.7046C16.142 11.798 16.1626 11.8985 16.1626 12C16.1626 12.1016 16.142 12.202 16.102 12.2954C16.062 12.3887 16.0035 12.473 15.9299 12.543Z" fill="#01150B"/>
</g>
<defs>
<filter id="filter0_d_179_769" x="-4" y="0" width="32" height="32" filterUnits="userSpaceOnUse" color-interpolation-filters="sRGB">
<feFlood flood-opacity="0" result="BackgroundImageFix"/>
<feColorMatrix in="SourceAlpha" type="matrix" values="0 0 0 0 0 0 0 0 0 0 0 0 0 0 0 0 0 0 127 0" result="hardAlpha"/>
<feOffset dy="4"/>
<feGaussianBlur stdDeviation="2"/>
<feComposite in2="hardAlpha" operator="out"/>
<feColorMatrix type="matrix" values="0 0 0 0 0 0 0 0 0 0 0 0 0 0 0 0 0 0 0.25 0"/>
<feBlend mode="normal" in2="BackgroundImageFix" result="effect1_dropShadow_179_769"/>
<feBlend mode="normal" in="SourceGraphic" in2="effect1_dropShadow_179_769" result="shape"/>
</filter>
</defs>
</svg>
