<svg width="24" height="24" viewBox="0 0 24 24" fill="none" xmlns="http://www.w3.org/2000/svg">
<path d="M10.1348 21L9.77281 18.108C9.45348 18.0113 9.10848 17.86 8.73781 17.654C8.36648 17.4473 8.05048 17.226 7.78981 16.99L5.12281 18.125L3.25781 14.875L5.56281 13.137C5.53348 12.9557 5.50915 12.769 5.48981 12.577C5.47115 12.3857 5.46181 12.1997 5.46181 12.019C5.46181 11.851 5.47115 11.6743 5.48981 11.489C5.50848 11.3037 5.53281 11.095 5.56281 10.863L3.25781 9.125L5.12281 5.913L7.77081 7.03C8.06948 6.78133 8.39281 6.557 8.74081 6.357C9.08748 6.157 9.42515 6.00233 9.75381 5.893L10.1338 3H13.8648L14.2268 5.912C14.6101 6.046 14.9488 6.20033 15.2428 6.375C15.5375 6.54967 15.8405 6.76767 16.1518 7.029L18.8768 5.913L20.7418 9.125L18.3598 10.921C18.4145 11.1277 18.4451 11.317 18.4518 11.489C18.4585 11.6623 18.4618 11.8327 18.4618 12C18.4618 12.1553 18.4551 12.319 18.4418 12.491C18.4291 12.6637 18.3998 12.8723 18.3538 13.117L20.6978 14.875L18.8328 18.125L16.1518 16.971C15.8405 17.2323 15.5271 17.4567 15.2118 17.644C14.8958 17.8313 14.5675 17.9793 14.2268 18.088L13.8648 21H10.1348ZM10.9998 20H12.9558L13.3248 17.292C13.8288 17.1587 14.2821 16.9757 14.6848 16.743C15.0881 16.5103 15.4988 16.1917 15.9168 15.787L18.4118 16.85L19.4058 15.15L17.2168 13.506C17.3001 13.2213 17.3555 12.9593 17.3828 12.72C17.4095 12.4813 17.4228 12.2413 17.4228 12C17.4228 11.7467 17.4095 11.5067 17.3828 11.28C17.3561 11.0533 17.3008 10.8043 17.2168 10.533L19.4438 8.85L18.4498 7.15L15.8978 8.22C15.5951 7.88733 15.1975 7.576 14.7048 7.286C14.2121 6.996 13.7455 6.80333 13.3048 6.708L12.9998 4H11.0058L10.6938 6.688C10.1898 6.796 9.72648 6.96933 9.30381 7.208C8.88181 7.448 8.46181 7.77667 8.04381 8.194L5.54981 7.15L4.55581 8.85L6.72481 10.47C6.64148 10.694 6.58315 10.9373 6.54981 11.2C6.51648 11.4627 6.49981 11.736 6.49981 12.02C6.49981 12.2733 6.51648 12.525 6.54981 12.775C6.58315 13.025 6.63515 13.2683 6.70581 13.505L4.55581 15.15L5.54981 16.85L8.02481 15.8C8.41681 16.196 8.82415 16.5137 9.24681 16.753C9.66948 16.9923 10.1455 17.1787 10.6748 17.312L10.9998 20ZM11.9728 14.5C12.6701 14.5 13.2611 14.2577 13.7458 13.773C14.2305 13.2883 14.4728 12.6973 14.4728 12C14.4728 11.3027 14.2305 10.7117 13.7458 10.227C13.2611 9.74233 12.6701 9.5 11.9728 9.5C11.2715 9.5 10.6795 9.74233 10.1968 10.227C9.71415 10.7117 9.47281 11.3027 9.47281 12C9.47281 12.6973 9.71415 13.2883 10.1968 13.773C10.6795 14.2577 11.2715 14.5 11.9728 14.5Z" fill="#01150B"/>
</svg>
