<svg width="40" height="40" viewBox="0 0 40 40" fill="none" xmlns="http://www.w3.org/2000/svg">
<path d="M38.3333 5.01664C38.3333 5.01664 34.97 7.0033 33.1 7.56664C32.0962 6.41249 30.7622 5.59446 29.2784 5.22318C27.7945 4.8519 26.2325 4.9453 24.8035 5.49073C23.3744 6.03616 22.1474 7.00731 21.2883 8.27283C20.4292 9.53836 19.9795 11.0372 20 12.5666V14.2333C17.071 14.3093 14.1688 13.6597 11.5517 12.3424C8.93456 11.0251 6.68385 9.08103 4.99999 6.6833C4.99999 6.6833 -1.66668 21.6833 13.3333 28.35C9.90087 30.6799 5.81192 31.8482 1.66666 31.6833C16.6667 40.0166 35 31.6833 35 12.5166C35 12.0533 34.9533 11.59 34.8667 11.1333C36.5667 9.45664 38.3333 5.01664 38.3333 5.01664Z" stroke="white" stroke-width="1.5" stroke-linecap="round" stroke-linejoin="round"/>
</svg>
